<svg width="534.545" height="94.005" xmlns="http://www.w3.org/2000/svg"><defs><linearGradient id="a"><stop offset="0" style="stop-color:#373737;stop-opacity:1"/><stop offset="1" style="stop-color:#212121;stop-opacity:1"/></linearGradient></defs><path style="display:inline;fill:#23b040" d="M114.742 213.962v-16.787h6.715v26.859h26.858v-26.859h6.715v33.574h-40.288zm13.43-10.072h6.714v6.715h6.715v6.714h-13.43z" transform="translate(-108.028 -190.46)"/><path style="display:inline;fill:#465d5c" d="M121.457 264.322h-6.715v-6.715h13.43v-6.714h6.714v6.714h6.715v-20.144h6.714v20.144h6.715v-6.714h13.43v6.714h13.429v6.715h-6.715v6.714h-53.717z" transform="translate(-108.028 -190.46)"/><path style="display:inline;fill:#3a3a3a" d="M108.028 190.46h60.431v6.715h6.715v6.715h6.715v6.715h6.714v73.86h-80.575zm73.86 33.574H155.03v-26.859h-40.288v80.576h67.147zm0-13.43h-6.714v-6.714h-6.715v-6.715h-6.714v20.144h20.144z" transform="translate(-108.028 -190.46)"/><path style="font-weight:700;font-size:91.4893px;line-height:1.25;font-family:'M+ 1p';-inkscape-font-specification:'M+ 1p Bold';letter-spacing:0;word-spacing:0;fill:#3b3b3b;stroke-width:2.28724" d="M238.926 207.14v29.002h.183l23.33-29.002h14.913l-26.532 32.021 27.447 34.766h-14.913l-24.245-31.747h-.183v31.747h-12.808V207.14zm65.69 18.298q10.887 0 15.644 4.3 4.758 4.208 4.758 13.723v17.658q0 6.495 1.372 12.808h-11.253q-.55-3.019-.824-7.044h-.183q-2.561 3.75-6.953 5.855-4.3 2.104-9.423 2.104-6.679 0-10.704-3.66-3.934-3.75-3.934-10.338 0-7.96 6.678-12.717 6.77-4.849 19.396-4.849h3.934v-.274q0-4.85-1.921-6.77-1.922-1.922-6.862-1.922-8.966 0-16.925 4.117l-1.739-8.874q8.692-4.117 18.939-4.117zm-10.339 34.491q0 2.928 1.739 4.575 1.738 1.647 4.757 1.647 5.215 0 8.783-3.385 3.568-3.386 3.568-8.509v-3.11h-3.934q-7.228 0-11.07 2.47-3.843 2.378-3.843 6.312zm43.824-33.576h11.161l.183 6.679h.183q2.745-3.569 6.77-5.581 4.118-2.013 8.418-2.013 8.234 0 12.076 5.123 3.934 5.032 3.934 16.56v26.806h-11.71V248.31q0-7.868-1.83-10.613-1.83-2.836-6.588-2.836-4.025 0-7.41 4.117-3.294 4.117-3.294 9.607v25.342h-11.893zm89.842 36.23 2.745 8.874q-7.502 3.385-15.553 3.385-11.436 0-18.39-6.679-6.953-6.678-6.953-18.023 0-11.62 6.679-18.115 6.77-6.587 18.664-6.587 8.05 0 15.553 3.385l-2.745 9.057q-5.764-3.293-12.26-3.293-6.495 0-10.155 4.025-3.568 4.026-3.568 11.528 0 7.32 3.751 11.528 3.843 4.208 9.973 4.208 6.587 0 12.26-3.293zm17.566-30.466q6.404-6.68 17.292-6.68 10.887 0 17.291 6.68 6.404 6.678 6.404 18.023 0 11.345-6.404 18.023-6.404 6.68-17.291 6.68-10.888 0-17.292-6.68-6.313-6.678-6.313-18.023 0-11.345 6.313-18.023zm17.292 33.668q5.58 0 8.691-3.934 3.11-4.026 3.11-11.711 0-7.685-3.11-11.62-3.11-4.025-8.691-4.025-5.49 0-8.6 4.026-3.111 3.934-3.111 11.619t3.11 11.71q3.111 3.935 8.6 3.935zm35.863 8.142V205.31h12.534v68.617zm28.82 0V205.31h12.533v68.617zm36.595-27.63h22.323q-.091-5.946-3.019-9.057-2.836-3.202-8.05-3.202-5.033 0-8.052 3.202-2.927 3.202-3.202 9.057zm0 8.143q.457 5.398 4.117 8.6 3.751 3.11 9.423 3.11 6.77 0 13.45-3.384l2.744 8.417q-8.234 3.66-17.383 3.66-10.796 0-17.566-6.68-6.679-6.678-6.679-18.023 0-11.528 6.222-18.115 6.221-6.587 16.834-6.587 10.612 0 16.468 6.313 5.947 6.312 5.947 18.115 0 2.287-.275 4.574zm62.304-26.257h16.377v8.874h-16.377v19.487q0 5.398 1.373 7.32 1.372 1.83 4.94 1.83 4.391 0 8.234-1.556l1.555 8.874q-5.672 1.83-12.26 1.83-8.416 0-12.259-3.75-3.75-3.752-3.75-12.443v-21.592h-9.882v-8.874h9.881V210.8h12.168z" aria-label="Kancollet" transform="translate(-108.028 -190.46)"/></svg>